<svg width="347" height="330" viewBox="0 0 347 330" fill="none" xmlns="http://www.w3.org/2000/svg">
<path d="M26.3901 316.933C26.3901 314.553 26.8661 312.434 27.8181 310.575C28.7928 308.716 30.1755 307.277 31.9661 306.257C33.7568 305.214 35.8648 304.693 38.2901 304.693C40.3755 304.693 42.2341 305.09 43.8661 305.883C45.5208 306.654 46.8581 307.753 47.8781 309.181C48.9208 310.609 49.6121 312.275 49.9521 314.179L41.9961 314.179C41.6335 313.386 41.1121 312.774 40.4321 312.343C39.7748 311.89 39.0155 311.663 38.1541 311.663C36.8848 311.663 35.8761 312.139 35.1281 313.091C34.4028 314.043 34.0401 315.324 34.0401 316.933C34.0401 318.542 34.4028 319.823 35.1281 320.775C35.8761 321.727 36.8848 322.203 38.1541 322.203C39.0155 322.203 39.7748 321.988 40.4321 321.557C41.1121 321.104 41.6335 320.48 41.9961 319.687L49.9521 319.687C49.6121 321.591 48.9208 323.257 47.8781 324.685C46.8581 326.113 45.5208 327.224 43.8661 328.017C42.2341 328.788 40.3755 329.173 38.2901 329.173C35.8648 329.173 33.7568 328.663 31.9661 327.643C30.1755 326.6 28.7928 325.15 27.8181 323.291C26.8661 321.432 26.3901 319.313 26.3901 316.933ZM64.3997 329.241C62.1331 329.241 60.0477 328.708 58.1437 327.643C56.2624 326.578 54.7664 325.104 53.6557 323.223C52.5451 321.342 51.9897 319.222 51.9897 316.865C51.9897 314.508 52.5451 312.388 53.6557 310.507C54.7664 308.626 56.2624 307.164 58.1437 306.121C60.0477 305.056 62.1331 304.523 64.3997 304.523C66.6664 304.523 68.7404 305.056 70.6217 306.121C72.5031 307.164 73.9877 308.626 75.0757 310.507C76.1864 312.388 76.7417 314.508 76.7417 316.865C76.7417 319.222 76.1864 321.342 75.0757 323.223C73.9877 325.104 72.4917 326.578 70.5877 327.643C68.7064 328.708 66.6437 329.241 64.3997 329.241ZM64.3997 322.203C65.8957 322.203 67.0517 321.727 67.8677 320.775C68.6837 319.8 69.0917 318.497 69.0917 316.865C69.0917 315.21 68.6837 313.907 67.8677 312.955C67.0517 311.98 65.8957 311.493 64.3997 311.493C62.8811 311.493 61.7137 311.98 60.8977 312.955C60.0817 313.907 59.6737 315.21 59.6737 316.865C59.6737 318.497 60.0817 319.8 60.8977 320.775C61.7137 321.727 62.8811 322.203 64.3997 322.203ZM102.551 329.003L95.0026 329.003L87.0126 316.899L87.0126 329.003L79.4646 329.003L79.4646 304.931L87.0126 304.931L95.0026 317.239L95.0026 304.931L102.551 304.931L102.551 329.003ZM124.865 304.931L124.865 310.915L118.473 310.915L118.473 329.003L110.925 329.003L110.925 310.915L104.601 310.915L104.601 304.931L124.865 304.931ZM139.016 329.003L134.494 320.367H134.46L134.46 329.003L126.912 329.003L126.912 304.931L138.132 304.931C140.081 304.931 141.747 305.282 143.13 305.985C144.513 306.665 145.544 307.606 146.224 308.807C146.927 309.986 147.278 311.323 147.278 312.819C147.278 314.428 146.825 315.856 145.918 317.103C145.034 318.35 143.753 319.245 142.076 319.789L147.312 329.003L139.016 329.003ZM134.46 315.335L137.452 315.335C138.177 315.335 138.721 315.176 139.084 314.859C139.447 314.519 139.628 313.998 139.628 313.295C139.628 312.66 139.435 312.162 139.05 311.799C138.687 311.436 138.155 311.255 137.452 311.255L134.46 311.255L134.46 315.335ZM165.125 325.365L157.101 325.365L155.911 329.003L147.989 329.003L156.795 304.931L165.499 304.931L174.271 329.003L166.315 329.003L165.125 325.365ZM163.289 319.687L161.113 312.989L158.937 319.687L163.289 319.687ZM181.083 316.933C181.083 314.553 181.559 312.434 182.511 310.575C183.486 308.716 184.869 307.277 186.659 306.257C188.45 305.214 190.558 304.693 192.983 304.693C195.069 304.693 196.927 305.09 198.559 305.883C200.214 306.654 201.551 307.753 202.571 309.181C203.614 310.609 204.305 312.275 204.645 314.179L196.689 314.179C196.327 313.386 195.805 312.774 195.125 312.343C194.468 311.89 193.709 311.663 192.847 311.663C191.578 311.663 190.569 312.139 189.821 313.091C189.096 314.043 188.733 315.324 188.733 316.933C188.733 318.542 189.096 319.823 189.821 320.775C190.569 321.727 191.578 322.203 192.847 322.203C193.709 322.203 194.468 321.988 195.125 321.557C195.805 321.104 196.327 320.48 196.689 319.687L204.645 319.687C204.305 321.591 203.614 323.257 202.571 324.685C201.551 326.113 200.214 327.224 198.559 328.017C196.927 328.788 195.069 329.173 192.983 329.173C190.558 329.173 188.45 328.663 186.659 327.643C184.869 326.6 183.486 325.15 182.511 323.291C181.559 321.432 181.083 319.313 181.083 316.933ZM219.093 329.241C216.826 329.241 214.741 328.708 212.837 327.643C210.956 326.578 209.46 325.104 208.349 323.223C207.238 321.342 206.683 319.222 206.683 316.865C206.683 314.508 207.238 312.388 208.349 310.507C209.46 308.626 210.956 307.164 212.837 306.121C214.741 305.056 216.826 304.523 219.093 304.523C221.36 304.523 223.434 305.056 225.315 306.121C227.196 307.164 228.681 308.626 229.769 310.507C230.88 312.388 231.435 314.508 231.435 316.865C231.435 319.222 230.88 321.342 229.769 323.223C228.681 325.104 227.185 326.578 225.281 327.643C223.4 328.708 221.337 329.241 219.093 329.241ZM219.093 322.203C220.589 322.203 221.745 321.727 222.561 320.775C223.377 319.8 223.785 318.497 223.785 316.865C223.785 315.21 223.377 313.907 222.561 312.955C221.745 311.98 220.589 311.493 219.093 311.493C217.574 311.493 216.407 311.98 215.591 312.955C214.775 313.907 214.367 315.21 214.367 316.865C214.367 318.497 214.775 319.8 215.591 320.775C216.407 321.727 217.574 322.203 219.093 322.203ZM244.188 304.931C246.704 304.931 248.903 305.441 250.784 306.461C252.688 307.481 254.15 308.898 255.17 310.711C256.19 312.524 256.7 314.587 256.7 316.899C256.7 319.188 256.19 321.251 255.17 323.087C254.15 324.923 252.688 326.374 250.784 327.439C248.903 328.482 246.704 329.003 244.188 329.003L234.158 329.003L234.158 304.931L244.188 304.931ZM243.508 322.271C245.208 322.271 246.557 321.806 247.554 320.877C248.551 319.948 249.05 318.622 249.05 316.899C249.05 315.176 248.551 313.85 247.554 312.921C246.557 311.992 245.208 311.527 243.508 311.527L241.706 311.527L241.706 322.271L243.508 322.271ZM266.974 310.949L266.974 313.907L274.454 313.907L274.454 319.585L266.974 319.585L266.974 322.985L275.474 322.985L275.474 329.003L259.426 329.003L259.426 304.931L275.474 304.931L275.474 310.949L266.974 310.949ZM290.422 329.003L285.9 320.367H285.866L285.866 329.003L278.318 329.003L278.318 304.931L289.538 304.931C291.487 304.931 293.153 305.282 294.536 305.985C295.919 306.665 296.95 307.606 297.63 308.807C298.333 309.986 298.684 311.323 298.684 312.819C298.684 314.428 298.231 315.856 297.324 317.103C296.44 318.35 295.159 319.245 293.482 319.789L298.718 329.003L290.422 329.003ZM285.866 315.335L288.858 315.335C289.583 315.335 290.127 315.176 290.49 314.859C290.853 314.519 291.034 313.998 291.034 313.295C291.034 312.66 290.841 312.162 290.456 311.799C290.093 311.436 289.561 311.255 288.858 311.255L285.866 311.255L285.866 315.335ZM310.514 329.241C307.635 329.241 305.255 328.572 303.374 327.235C301.515 325.875 300.506 323.892 300.348 321.285L308.372 321.285C308.485 322.668 309.097 323.359 310.208 323.359C310.616 323.359 310.956 323.268 311.228 323.087C311.522 322.883 311.67 322.577 311.67 322.169C311.67 321.602 311.364 321.149 310.752 320.809C310.14 320.446 309.188 320.038 307.896 319.585C306.354 319.041 305.074 318.508 304.054 317.987C303.056 317.466 302.195 316.706 301.47 315.709C300.744 314.712 300.393 313.431 300.416 311.867C300.416 310.303 300.812 308.977 301.606 307.889C302.422 306.778 303.521 305.94 304.904 305.373C306.309 304.806 307.884 304.523 309.63 304.523C312.576 304.523 314.911 305.203 316.634 306.563C318.379 307.923 319.297 309.838 319.388 312.309L311.262 312.309C311.239 311.629 311.069 311.142 310.752 310.847C310.434 310.552 310.049 310.405 309.596 310.405C309.278 310.405 309.018 310.518 308.814 310.745C308.61 310.949 308.508 311.244 308.508 311.629C308.508 312.173 308.802 312.626 309.392 312.989C310.004 313.329 310.967 313.748 312.282 314.247C313.8 314.814 315.047 315.358 316.022 315.879C317.019 316.4 317.88 317.126 318.606 318.055C319.331 318.984 319.694 320.152 319.694 321.557C319.694 323.03 319.331 324.356 318.606 325.535C317.88 326.691 316.826 327.598 315.444 328.255C314.061 328.912 312.418 329.241 310.514 329.241Z" fill="white"/>
<path d="M64.9712 69.2284C56.7028 42.8811 71.3587 14.8196 97.706 6.55129L99.464 5.99959L164.032 211.747C172.3 238.094 157.644 266.155 131.297 274.424L129.539 274.975L64.9712 69.2284Z" fill="url(#paint0_linear_10_50)"/>
<path d="M173.089 133.381C161.887 109.621 172.068 81.2782 195.828 70.076V70.076L262.675 211.863C273.878 235.623 263.697 263.966 239.937 275.168V275.168L173.089 133.381Z" fill="url(#paint1_linear_10_50)"/>
<path d="M249.89 147.191C250.999 132.874 263.504 122.168 277.821 123.277V123.277C292.137 124.386 302.844 136.891 301.734 151.208L295.678 229.381C293.545 256.913 269.496 277.502 241.965 275.369L239.971 275.215L249.89 147.191Z" fill="#23519F"/>
<path d="M37.4825 49.7567C40.257 22.2822 64.7787 2.25896 92.2532 5.03347L98.6478 5.67924L74.0043 249.71C72.4387 265.213 58.6019 276.512 43.0988 274.946V274.946C27.5957 273.381 16.2971 259.544 17.8627 244.041L37.4825 49.7567Z" fill="url(#paint2_linear_10_50)"/>
<path d="M140.632 115.867C142.645 88.3261 166.603 67.6319 194.144 69.645L195.847 69.7695L184.215 228.902C182.202 256.443 158.244 277.137 130.703 275.124L129 275L140.632 115.867Z" fill="url(#paint3_linear_10_50)"/>
<defs>
<linearGradient id="paint0_linear_10_50" x1="74.732" y1="13.761" x2="154.271" y2="267.214" gradientUnits="userSpaceOnUse">
<stop offset="0.575381" stop-color="#23519F"/>
<stop offset="0.898627" stop-color="#4B83E2"/>
<stop offset="1" stop-color="#4B83E2"/>
</linearGradient>
<linearGradient id="paint1_linear_10_50" x1="174.317" y1="80.2177" x2="261.448" y2="265.026" gradientUnits="userSpaceOnUse">
<stop offset="0.49922" stop-color="#23519F"/>
<stop offset="0.78387" stop-color="#4477CD"/>
<stop offset="1" stop-color="#4B83E2"/>
</linearGradient>
<linearGradient id="paint2_linear_10_50" x1="70.577" y1="2.8445" x2="43.0988" y2="274.946" gradientUnits="userSpaceOnUse">
<stop stop-color="#23519F"/>
<stop offset="0.5" stop-color="#214685"/>
<stop offset="1" stop-color="#4B83E2" stop-opacity="0.85"/>
</linearGradient>
<linearGradient id="paint3_linear_10_50" x1="170.062" y1="67.8847" x2="154.785" y2="276.885" gradientUnits="userSpaceOnUse">
<stop stop-color="#284F92"/>
<stop offset="1" stop-color="#23519F"/>
</linearGradient>
</defs>
</svg>
