<svg width="348" height="330" viewBox="0 0 348 330" fill="none" xmlns="http://www.w3.org/2000/svg">
<path d="M27.3639 316.93C27.3639 314.55 27.8399 312.43 28.7919 310.572C29.7665 308.713 31.1492 307.274 32.9399 306.254C34.7305 305.211 36.8385 304.69 39.2639 304.69C41.3492 304.69 43.2079 305.086 44.8399 305.88C46.4945 306.65 47.8319 307.75 48.8519 309.178C49.8945 310.606 50.5859 312.272 50.9259 314.176L42.9699 314.176C42.6072 313.382 42.0859 312.77 41.4059 312.34C40.7485 311.886 39.9892 311.66 39.1279 311.66C37.8585 311.66 36.8499 312.136 36.1019 313.088C35.3765 314.04 35.0139 315.32 35.0139 316.93C35.0139 318.539 35.3765 319.82 36.1019 320.772C36.8499 321.724 37.8585 322.2 39.1279 322.2C39.9892 322.2 40.7485 321.984 41.4059 321.554C42.0859 321.1 42.6072 320.477 42.9699 319.684L50.9259 319.684C50.5859 321.588 49.8945 323.254 48.8519 324.682C47.8319 326.11 46.4945 327.22 44.8399 328.014C43.2079 328.784 41.3492 329.17 39.2639 329.17C36.8385 329.17 34.7305 328.66 32.9399 327.64C31.1492 326.597 29.7665 325.146 28.7919 323.288C27.8399 321.429 27.3639 319.31 27.3639 316.93ZM65.3735 329.238C63.1068 329.238 61.0215 328.705 59.1175 327.64C57.2361 326.574 55.7401 325.101 54.6295 323.22C53.5188 321.338 52.9635 319.219 52.9635 316.862C52.9635 314.504 53.5188 312.385 54.6295 310.504C55.7401 308.622 57.2361 307.16 59.1175 306.118C61.0215 305.052 63.1068 304.52 65.3735 304.52C67.6401 304.52 69.7141 305.052 71.5955 306.118C73.4768 307.16 74.9615 308.622 76.0495 310.504C77.1601 312.385 77.7155 314.504 77.7155 316.862C77.7155 319.219 77.1601 321.338 76.0495 323.22C74.9615 325.101 73.4655 326.574 71.5615 327.64C69.6801 328.705 67.6175 329.238 65.3735 329.238ZM65.3735 322.2C66.8695 322.2 68.0255 321.724 68.8415 320.772C69.6575 319.797 70.0655 318.494 70.0655 316.862C70.0655 315.207 69.6575 313.904 68.8415 312.952C68.0255 311.977 66.8695 311.49 65.3735 311.49C63.8548 311.49 62.6875 311.977 61.8715 312.952C61.0555 313.904 60.6475 315.207 60.6475 316.862C60.6475 318.494 61.0555 319.797 61.8715 320.772C62.6875 321.724 63.8548 322.2 65.3735 322.2ZM103.524 329L95.9764 329L87.9864 316.896L87.9864 329L80.4384 329L80.4384 304.928L87.9864 304.928L95.9764 317.236L95.9764 304.928L103.524 304.928L103.524 329ZM125.838 304.928L125.838 310.912L119.446 310.912L119.446 329L111.898 329L111.898 310.912L105.574 310.912L105.574 304.928L125.838 304.928ZM139.99 329L135.468 320.364H135.434L135.434 329L127.886 329L127.886 304.928L139.106 304.928C141.055 304.928 142.721 305.279 144.104 305.982C145.486 306.662 146.518 307.602 147.198 308.804C147.9 309.982 148.252 311.32 148.252 312.816C148.252 314.425 147.798 315.853 146.892 317.1C146.008 318.346 144.727 319.242 143.05 319.786L148.286 329L139.99 329ZM135.434 315.332L138.426 315.332C139.151 315.332 139.695 315.173 140.058 314.856C140.42 314.516 140.602 313.994 140.602 313.292C140.602 312.657 140.409 312.158 140.024 311.796C139.661 311.433 139.128 311.252 138.426 311.252L135.434 311.252L135.434 315.332ZM166.099 325.362L158.075 325.362L156.885 329L148.963 329L157.769 304.928L166.473 304.928L175.245 329L167.289 329L166.099 325.362ZM164.263 319.684L162.087 312.986L159.911 319.684L164.263 319.684ZM182.057 316.93C182.057 314.55 182.533 312.43 183.485 310.572C184.46 308.713 185.843 307.274 187.633 306.254C189.424 305.211 191.532 304.69 193.957 304.69C196.043 304.69 197.901 305.086 199.533 305.88C201.188 306.65 202.525 307.75 203.545 309.178C204.588 310.606 205.279 312.272 205.619 314.176L197.663 314.176C197.301 313.382 196.779 312.77 196.099 312.34C195.442 311.886 194.683 311.66 193.821 311.66C192.552 311.66 191.543 312.136 190.795 313.088C190.07 314.04 189.707 315.32 189.707 316.93C189.707 318.539 190.07 319.82 190.795 320.772C191.543 321.724 192.552 322.2 193.821 322.2C194.683 322.2 195.442 321.984 196.099 321.554C196.779 321.1 197.301 320.477 197.663 319.684L205.619 319.684C205.279 321.588 204.588 323.254 203.545 324.682C202.525 326.11 201.188 327.22 199.533 328.014C197.901 328.784 196.043 329.17 193.957 329.17C191.532 329.17 189.424 328.66 187.633 327.64C185.843 326.597 184.46 325.146 183.485 323.288C182.533 321.429 182.057 319.31 182.057 316.93ZM220.067 329.238C217.8 329.238 215.715 328.705 213.811 327.64C211.93 326.574 210.434 325.101 209.323 323.22C208.212 321.338 207.657 319.219 207.657 316.862C207.657 314.504 208.212 312.385 209.323 310.504C210.434 308.622 211.93 307.16 213.811 306.118C215.715 305.052 217.8 304.52 220.067 304.52C222.334 304.52 224.408 305.052 226.289 306.118C228.17 307.16 229.655 308.622 230.743 310.504C231.854 312.385 232.409 314.504 232.409 316.862C232.409 319.219 231.854 321.338 230.743 323.22C229.655 325.101 228.159 326.574 226.255 327.64C224.374 328.705 222.311 329.238 220.067 329.238ZM220.067 322.2C221.563 322.2 222.719 321.724 223.535 320.772C224.351 319.797 224.759 318.494 224.759 316.862C224.759 315.207 224.351 313.904 223.535 312.952C222.719 311.977 221.563 311.49 220.067 311.49C218.548 311.49 217.381 311.977 216.565 312.952C215.749 313.904 215.341 315.207 215.341 316.862C215.341 318.494 215.749 319.797 216.565 320.772C217.381 321.724 218.548 322.2 220.067 322.2ZM245.162 304.928C247.678 304.928 249.876 305.438 251.758 306.458C253.662 307.478 255.124 308.894 256.144 310.708C257.164 312.521 257.674 314.584 257.674 316.896C257.674 319.185 257.164 321.248 256.144 323.084C255.124 324.92 253.662 326.37 251.758 327.436C249.876 328.478 247.678 329 245.162 329L235.132 329L235.132 304.928L245.162 304.928ZM244.482 322.268C246.182 322.268 247.53 321.803 248.528 320.874C249.525 319.944 250.024 318.618 250.024 316.896C250.024 315.173 249.525 313.847 248.528 312.918C247.53 311.988 246.182 311.524 244.482 311.524L242.68 311.524L242.68 322.268L244.482 322.268ZM267.947 310.946L267.947 313.904L275.427 313.904L275.427 319.582L267.947 319.582L267.947 322.982L276.447 322.982L276.447 329L260.399 329L260.399 304.928L276.447 304.928L276.447 310.946L267.947 310.946ZM291.396 329L286.874 320.364H286.84L286.84 329L279.292 329L279.292 304.928L290.512 304.928C292.461 304.928 294.127 305.279 295.51 305.982C296.893 306.662 297.924 307.602 298.604 308.804C299.307 309.982 299.658 311.32 299.658 312.816C299.658 314.425 299.205 315.853 298.298 317.1C297.414 318.346 296.133 319.242 294.456 319.786L299.692 329L291.396 329ZM286.84 315.332L289.832 315.332C290.557 315.332 291.101 315.173 291.464 314.856C291.827 314.516 292.008 313.994 292.008 313.292C292.008 312.657 291.815 312.158 291.43 311.796C291.067 311.433 290.535 311.252 289.832 311.252L286.84 311.252L286.84 315.332ZM311.487 329.238C308.609 329.238 306.229 328.569 304.347 327.232C302.489 325.872 301.48 323.888 301.321 321.282L309.345 321.282C309.459 322.664 310.071 323.356 311.181 323.356C311.589 323.356 311.929 323.265 312.201 323.084C312.496 322.88 312.643 322.574 312.643 322.166C312.643 321.599 312.337 321.146 311.725 320.806C311.113 320.443 310.161 320.035 308.869 319.582C307.328 319.038 306.047 318.505 305.027 317.984C304.03 317.462 303.169 316.703 302.443 315.706C301.718 314.708 301.367 313.428 301.389 311.864C301.389 310.3 301.786 308.974 302.579 307.886C303.395 306.775 304.495 305.936 305.877 305.37C307.283 304.803 308.858 304.52 310.603 304.52C313.55 304.52 315.885 305.2 317.607 306.56C319.353 307.92 320.271 309.835 320.361 312.306L312.235 312.306C312.213 311.626 312.043 311.138 311.725 310.844C311.408 310.549 311.023 310.402 310.569 310.402C310.252 310.402 309.991 310.515 309.787 310.742C309.583 310.946 309.481 311.24 309.481 311.626C309.481 312.17 309.776 312.623 310.365 312.986C310.977 313.326 311.941 313.745 313.255 314.244C314.774 314.81 316.021 315.354 316.995 315.876C317.993 316.397 318.854 317.122 319.579 318.052C320.305 318.981 320.667 320.148 320.667 321.554C320.667 323.027 320.305 324.353 319.579 325.532C318.854 326.688 317.8 327.594 316.417 328.252C315.035 328.909 313.391 329.238 311.487 329.238Z" fill="white"/>
<path d="M65.9449 69.2245C57.6766 42.8772 72.3325 14.8157 98.6798 6.54739L100.438 5.99569L165.006 211.743C173.274 238.09 158.618 266.151 132.271 274.42L130.513 274.971L65.9449 69.2245Z" fill="#ECEEF3"/>
<path d="M174.063 133.377C162.861 109.617 173.041 81.2743 196.802 70.0721V70.0721L263.649 211.859C274.851 235.619 264.671 263.962 240.911 275.164V275.164L174.063 133.377Z" fill="#ECEEF3"/>
<path d="M250.864 147.187C251.973 132.87 264.478 122.164 278.794 123.273V123.273C293.111 124.382 303.817 136.887 302.708 151.204L296.651 229.377C294.518 256.909 270.47 277.498 242.938 275.365L240.944 275.211L250.864 147.187Z" fill="#ECEEF3"/>
<path d="M38.4563 49.7528C41.2308 22.2783 65.7525 2.25505 93.227 5.02957L99.6216 5.67533L74.9781 249.707C73.4125 265.21 59.5756 276.508 44.0725 274.943V274.943C28.5695 273.377 17.2709 259.54 18.8365 244.037L38.4563 49.7528Z" fill="#ECEEF3"/>
<path d="M141.606 115.863C143.619 88.3222 167.577 67.628 195.117 69.6411L196.821 69.7656L185.189 228.898C183.176 256.439 159.218 277.133 131.677 275.12L129.974 274.996L141.606 115.863Z" fill="#ECEEF3"/>
</svg>
